<?xml version="1.0" encoding="UTF-8"?>
<svg version="1.1" xmlns="http://www.w3.org/2000/svg" width="1560" height="451">
<path d="M0 0 C1.04414063 0.52335937 2.08828125 1.04671875 3.1640625 1.5859375 C25.3824063 13.60377518 42.12567646 34.80940494 49.578125 58.86621094 C57.40919168 85.54739588 54.9081315 111.50318546 41.92382812 136.10595703 C35.5952851 147.60355168 27.63144911 158.06017091 18 167 C17.21625 167.78375 16.4325 168.5675 15.625 169.375 C14.75875 170.24125 13.8925 171.1075 13 172 C12.28457031 172.75023437 11.56914062 173.50046875 10.83203125 174.2734375 C10.04183594 175.09070313 9.25164062 175.90796875 8.4375 176.75 C7.69371094 177.52859375 6.94992188 178.3071875 6.18359375 179.109375 C3.89669803 181.08944214 2.95688963 181.69522844 0 182 C-2.17895508 180.99951172 -2.17895508 180.99951172 -4.51953125 179.4296875 C-5.37740234 178.8625 -6.23527344 178.2953125 -7.11914062 177.7109375 C-8.00794922 177.10507813 -8.89675781 176.49921875 -9.8125 175.875 C-10.68970703 175.29234375 -11.56691406 174.7096875 -12.47070312 174.109375 C-17.38213477 170.83263826 -22.21573256 167.45929297 -27 164 C-23.74491631 160.63971399 -20.36447251 157.55977084 -16.78540039 154.54882812 C2.53276668 138.25491085 18.02500169 118.78011749 20.28515625 92.7109375 C20.8444319 72.72291201 13.27404809 55.73735153 -0.1875 41.3125 C-13.99722014 28.1165452 -31.78425711 22.35636661 -50.64453125 22.73046875 C-68.17755238 23.52404808 -84.76665584 31.62192772 -96.65966797 44.44335938 C-108.76589647 58.50334352 -114.69458759 75.87738298 -113.9375 94.4375 C-111.23265464 119.51879333 -95.98141872 139.42337326 -77 155 C-67.18843471 162.73411652 -56.5022905 169.05594926 -45.8125 175.48828125 C-37.4541357 180.52117134 -29.21556448 185.73808265 -21 191 C-20.14712402 191.54575684 -19.29424805 192.09151367 -18.41552734 192.65380859 C-2.24812381 203.02057976 13.27493101 213.7247996 27.48828125 226.7109375 C29.1799032 228.25260229 30.88605651 229.77845444 32.60546875 231.2890625 C37.84005605 235.89803346 42.60598336 240.58477267 47 246 C47.75925781 246.91007812 48.51851562 247.82015625 49.30078125 248.7578125 C67.31104804 270.83777511 77.59645275 297.50593281 74.77734375 326.27197266 C71.35880932 355.51609024 58.10094019 380.84042063 35.01171875 399.40234375 C23.35610269 407.82933935 10.38686618 414.83730865 -3.25 419.4375 C-3.90895264 419.66010498 -4.56790527 419.88270996 -5.24682617 420.11206055 C-18.21646117 424.1853635 -30.72973444 425.51391172 -44.23266602 425.44604492 C-46.79981067 425.43754203 -49.36471405 425.46641092 -51.93164062 425.49804688 C-80.59733853 425.61965633 -108.96953597 415.41941001 -131 397 C-131.50370117 396.57992676 -132.00740234 396.15985352 -132.52636719 395.72705078 C-152.27591302 379.05061838 -165.11916836 355.80001438 -168 330 C-169.119657 307.83386945 -166.90884509 289.82281367 -157 270 C-156.12214844 268.24236328 -156.12214844 268.24236328 -155.2265625 266.44921875 C-149.97810718 256.67203299 -143.23976994 248.36117717 -136 240 C-135.28191162 239.16807129 -135.28191162 239.16807129 -134.54931641 238.31933594 C-125.57980198 228.02017789 -115.64142605 218.73782944 -105 210.1875 C-104.20843506 209.52886963 -104.20843506 209.52886963 -103.40087891 208.85693359 C-99.66965119 205.94956096 -99.66965119 205.94956096 -96.7019043 206.1730957 C-93.38520291 207.18815557 -90.83380201 208.71917119 -87.89453125 210.5625 C-87.04661263 211.08952515 -87.04661263 211.08952515 -86.18156433 211.62719727 C-84.38735375 212.74440957 -82.59985258 213.87185562 -80.8125 215 C-79.01303739 216.12577573 -77.21227907 217.24945397 -75.41130066 218.37280273 C-73.78356092 219.38969011 -72.15891315 220.41152182 -70.53442383 221.43359375 C-68.12712918 222.97385988 -68.12712918 222.97385988 -66 224 C-67.48636777 227.77819741 -69.48879794 229.30939011 -72.8125 231.5625 C-98.3412029 249.63151699 -122.99588709 273.89098393 -130.375 305.28515625 C-133.26267756 322.44878975 -129.10340965 339.45011944 -119.1171875 353.68359375 C-117.15848742 356.20686032 -115.12314521 358.61398919 -113 361 C-112.09314453 362.04800781 -112.09314453 362.04800781 -111.16796875 363.1171875 C-97.76542493 377.62015071 -75.91626227 386.0892952 -56.39697266 387.14013672 C-31.5174701 387.97736759 -9.32824546 384.30632683 11 369 C11.72703125 368.45730469 12.4540625 367.91460937 13.203125 367.35546875 C23.03061672 359.40448627 29.4629082 348.64811068 34 337 C34.3403125 336.14277344 34.680625 335.28554688 35.03125 334.40234375 C40.23149996 318.8256691 37.22994734 302.50588414 30.61328125 287.94921875 C25.03112591 277.13666033 17.35692453 267.77162905 9 259 C8.23792236 258.1970752 8.23792236 258.1970752 7.46044922 257.37792969 C-0.78230722 248.74776614 -9.37626536 241.05268168 -19 234 C-19.63212402 233.53416504 -20.26424805 233.06833008 -20.91552734 232.58837891 C-34.52629506 222.61883714 -48.82639483 213.72248695 -63.1328125 204.796875 C-85.27970796 190.95341913 -106.96232027 175.90730249 -123 155 C-123.75023437 154.06542969 -124.50046875 153.13085938 -125.2734375 152.16796875 C-142.18540199 130.60954303 -150.1577455 104.82509357 -147.3125 77.5 C-143.91551699 50.67173418 -130.50683512 26.48057176 -109.26123047 9.62011719 C-77.63657313 -14.08763083 -35.19996669 -18.07989385 0 0 Z " fill="#82BC43" transform="translate(168,26)"/>
<path d="M0 0 C1.04414063 0.52335937 2.08828125 1.04671875 3.1640625 1.5859375 C25.3824063 13.60377518 42.12567646 34.80940494 49.578125 58.86621094 C57.40919168 85.54739588 54.9081315 111.50318546 41.92382812 136.10595703 C35.5952851 147.60355168 27.63144911 158.06017091 18 167 C17.21625 167.78375 16.4325 168.5675 15.625 169.375 C14.75875 170.24125 13.8925 171.1075 13 172 C12.28457031 172.75023437 11.56914062 173.50046875 10.83203125 174.2734375 C10.04183594 175.09070313 9.25164062 175.90796875 8.4375 176.75 C7.69371094 177.52859375 6.94992188 178.3071875 6.18359375 179.109375 C3.89669803 181.08944214 2.95688963 181.69522844 0 182 C-2.17895508 180.99951172 -2.17895508 180.99951172 -4.51953125 179.4296875 C-5.37740234 178.8625 -6.23527344 178.2953125 -7.11914062 177.7109375 C-8.00794922 177.10507813 -8.89675781 176.49921875 -9.8125 175.875 C-10.68970703 175.29234375 -11.56691406 174.7096875 -12.47070312 174.109375 C-17.38213477 170.83263826 -22.21573256 167.45929297 -27 164 C-23.74491631 160.63971399 -20.36447251 157.55977084 -16.78540039 154.54882812 C2.53276668 138.25491085 18.02500169 118.78011749 20.28515625 92.7109375 C20.8444319 72.72291201 13.27404809 55.73735153 -0.1875 41.3125 C-13.99722014 28.1165452 -31.78425711 22.35636661 -50.64453125 22.73046875 C-68.17755238 23.52404808 -84.76665584 31.62192772 -96.65966797 44.44335938 C-108.76589647 58.50334352 -114.69458759 75.87738298 -113.9375 94.4375 C-111.23265464 119.51879333 -95.98141872 139.42337326 -77 155 C-67.18843471 162.73411652 -56.5022905 169.05594926 -45.8125 175.48828125 C-37.4541357 180.52117134 -29.21556448 185.73808265 -21 191 C-20.14712402 191.54575684 -19.29424805 192.09151367 -18.41552734 192.65380859 C-5.09524064 201.19496759 7.7333925 209.98120016 20 220 C20.64582031 220.52078125 21.29164063 221.0415625 21.95703125 221.578125 C23.325639 222.69352429 24.66694359 223.84234575 26 225 C26 225.33 26 225.66 26 226 C18.55520324 226.50546586 11.11062279 226.88939215 3.6550293 227.19628906 C1.12955464 227.31374554 -1.39486981 227.45719314 -3.91723633 227.62890625 C-22.43159439 228.86491346 -33.42554974 226.51150208 -47.87466431 214.69671631 C-50.69140241 212.44803367 -53.61109579 210.62452422 -56.703125 208.7734375 C-57.63165283 208.20318848 -58.56018066 207.63293945 -59.5168457 207.04541016 C-60.86975708 206.21855713 -60.86975708 206.21855713 -62.25 205.375 C-76.14488086 196.77367451 -89.64248522 187.73201209 -102 177 C-102.99644531 176.13761719 -103.99289063 175.27523437 -105.01953125 174.38671875 C-111.75195551 168.45057997 -117.52501565 162.13738869 -123 155 C-123.75023438 154.06542969 -124.50046875 153.13085938 -125.2734375 152.16796875 C-142.18540199 130.60954303 -150.1577455 104.82509357 -147.3125 77.5 C-143.91551699 50.67173418 -130.50683512 26.48057176 -109.26123047 9.62011719 C-77.63657313 -14.08763083 -35.19996669 -18.07989385 0 0 Z " fill="#0097BB" transform="translate(168,26)"/>
<path d="M0 0 C6.61912406 5.19200285 10.98607264 12.8760978 15.56347656 19.81542969 C17.71977904 23.06866652 19.93578171 26.27984456 22.15234375 29.4921875 C22.59586182 30.13776611 23.03937988 30.78334473 23.49633789 31.44848633 C27.54293023 37.33552777 31.6295569 43.19446454 35.71484375 49.0546875 C41.0087056 56.65033726 46.26057719 64.27238436 51.46484375 71.9296875 C56.73861839 79.68597971 62.05021274 87.41472929 67.40234375 95.1171875 C68.04042969 96.03693359 68.67851563 96.95667969 69.3359375 97.90429688 C70.57227412 99.68024291 71.81418499 101.45232316 73.06201172 103.22021484 C74.41772194 105.15063209 75.75319077 107.09533182 77.07470703 109.04931641 C77.77192871 110.05784668 78.46915039 111.06637695 79.1875 112.10546875 C79.815354 113.02884033 80.44320801 113.95221191 81.09008789 114.90356445 C81.70875732 115.57218506 82.32742676 116.24080566 82.96484375 116.9296875 C84.28484375 116.9296875 85.60484375 116.9296875 86.96484375 116.9296875 C86.96907569 116.32246888 86.97330763 115.71525026 86.97766781 115.08963108 C87.08083886 100.33492021 87.18945602 85.58025645 87.30418301 70.82563114 C87.35953121 63.69049299 87.41301576 56.55534983 87.4621582 49.42016602 C87.50954425 42.5407521 87.56206393 35.66139294 87.6177845 28.78204155 C87.63824334 26.15088619 87.65695043 23.51971664 87.67391777 20.88853645 C87.69788391 17.21738652 87.72794877 13.54633538 87.75952148 9.87524414 C87.76527695 8.77545227 87.77103241 7.6756604 87.77696228 6.5425415 C87.7867511 5.54829666 87.79653992 4.55405182 87.80662537 3.52967834 C87.81307792 2.66042756 87.81953047 1.79117678 87.82617855 0.89558506 C87.96484375 -1.0703125 87.96484375 -1.0703125 88.96484375 -2.0703125 C91.15123828 -2.14290196 93.33984764 -2.15405033 95.52734375 -2.1328125 C97.32365234 -2.11927734 97.32365234 -2.11927734 99.15625 -2.10546875 C100.08308594 -2.09386719 101.00992188 -2.08226562 101.96484375 -2.0703125 C102.05833791 13.86322768 102.12884774 29.79669365 102.17209244 45.73044014 C102.19270657 53.12898053 102.22080495 60.52735035 102.26660156 67.92578125 C102.30650481 74.37522302 102.33228492 80.82454125 102.34119773 87.27410305 C102.34640667 90.68829385 102.35862489 94.10213125 102.38776398 97.51620865 C102.41676438 101.33019286 102.42080096 105.14344295 102.41894531 108.95751953 C102.43332642 110.08608871 102.44770752 111.2146579 102.46252441 112.37742615 C102.42995809 118.55581244 102.13590812 122.24968199 97.96484375 126.9296875 C93.38960916 130.96025131 90.85258157 132.12291974 84.77734375 132.3046875 C83.67003906 132.35367188 82.56273437 132.40265625 81.421875 132.453125 C75.93377313 131.62215816 72.66025867 129.02770562 69.26538086 124.82666016 C67.4483963 122.27741128 65.7292074 119.68215847 64.02734375 117.0546875 C62.70698871 115.06687114 61.38533201 113.07991887 60.0625 111.09375 C59.38719238 110.07313477 58.71188477 109.05251953 58.01611328 108.00097656 C54.73823538 103.09313272 51.35058662 98.26344965 47.96484375 93.4296875 C41.38669307 84.00431341 34.89384823 74.52332525 28.4296875 65.01953125 C24.07034144 58.61041852 19.67692371 52.22500666 15.27978516 45.84179688 C13.9152349 43.85754927 12.55483775 41.87050594 11.1953125 39.8828125 C8.91455605 36.54961348 6.62527863 33.22246092 4.32763672 29.90087891 C3.40290266 28.56331123 2.48011422 27.22439677 1.55908203 25.88427734 C0.20232803 23.91455199 -1.16485827 21.95250655 -2.53515625 19.9921875 C-2.94451416 19.3945459 -3.35387207 18.7969043 -3.77563477 18.18115234 C-6.21412005 14.69895607 -6.21412005 14.69895607 -10.03515625 12.9296875 C-11.02515625 13.4246875 -11.02515625 13.4246875 -12.03515625 13.9296875 C-12.36515625 52.8696875 -12.69515625 91.8096875 -13.03515625 131.9296875 C-17.65515625 131.9296875 -22.27515625 131.9296875 -27.03515625 131.9296875 C-27.12787778 116.42185317 -27.19919887 100.91405944 -27.24240494 85.40601349 C-27.26300238 78.20482426 -27.29106863 71.00381078 -27.33691406 63.80273438 C-27.37686866 57.52393837 -27.40260955 51.24526968 -27.41151023 44.96635008 C-27.41671056 41.64373175 -27.4309931 38.32156105 -27.45807648 34.9990387 C-27.4871551 31.2836456 -27.49111019 27.56900439 -27.48925781 23.85351562 C-27.50363892 22.76018921 -27.51802002 21.66686279 -27.53283691 20.54040527 C-27.49121247 12.8138107 -26.22810621 7.12263746 -20.66015625 1.5546875 C-14.17884553 -2.45755247 -6.98136949 -3.67158395 0 0 Z " fill="#352F2E" transform="translate(920.03515625,159.0703125)"/>
<path d="M0 0 C2.29886811 1.73797589 4.5101832 3.5458584 6.7109375 5.40625 C7.47535156 6.03660156 8.23976563 6.66695312 9.02734375 7.31640625 C14.34791163 11.84474067 18.63233714 16.74079869 22.7109375 22.40625 C19.8391022 26.38263733 16.94411546 28.92155859 12.7109375 31.40625 C12.0509375 31.40625 11.3909375 31.40625 10.7109375 31.40625 C9.48936167 29.97209602 8.33426213 28.48109484 7.2109375 26.96875 C-3.21788871 13.70763465 -15.45423527 5.85495214 -32.2890625 3.40625 C-47.13609547 2.04448392 -61.20034129 6.72300207 -73.15234375 15.51171875 C-83.94346996 24.76359478 -92.72482541 38.00669765 -94.2890625 52.40625 C-95.46047541 69.13042208 -92.01837386 84.04844526 -80.96484375 97.1640625 C-70.66729066 107.9950838 -57.29202518 115.10336114 -42.2890625 116.40625 C-26.7633802 116.73894319 -11.49833982 111.89994159 0.0234375 101.2734375 C9.52667962 91.24611952 10.18609638 82.71368302 12.7109375 68.40625 C-2.4690625 68.40625 -17.6490625 68.40625 -33.2890625 68.40625 C-33.2890625 64.11625 -33.2890625 59.82625 -33.2890625 55.40625 C-13.1590625 55.40625 6.9709375 55.40625 27.7109375 55.40625 C26.62622264 79.26997702 25.69478497 97.25146975 8.05859375 113.60546875 C-5.72695511 125.61434031 -23.78947468 131.00223493 -41.8671875 130.65625 C-57.06287176 129.54606302 -70.35862483 124.86634022 -82.2890625 115.40625 C-83.12308594 114.74882812 -83.95710938 114.09140625 -84.81640625 113.4140625 C-98.81325595 101.63859264 -107.76426649 84.71107933 -109.47363281 66.43261719 C-110.69481962 47.85124959 -105.62613135 28.84790096 -93.41040039 14.47973633 C-70.20456164 -11.08923929 -29.71838524 -20.69129894 0 0 Z " fill="#36302F" transform="translate(448.2890625,162.59375)"/>
<path d="M0 0 C10.993125 -0.04125 21.98625 -0.0825 33.3125 -0.125 C36.76243408 -0.14320801 40.21236816 -0.16141602 43.7668457 -0.18017578 C48.03356934 -0.18920898 48.03356934 -0.18920898 50.04142761 -0.19088745 C51.4209574 -0.19392549 52.80048245 -0.20088936 54.17997742 -0.21115112 C68.27529545 -0.31061052 81.89793668 0.19230594 92.8125 10.1875 C101.56593611 19.62382829 102.46565208 30.07333629 102.27734375 42.27734375 C102.05792188 47.83057281 100.89346446 52.23164268 98 57 C97.57589844 57.71285156 97.15179687 58.42570312 96.71484375 59.16015625 C91.70368179 66.62804384 84.52829475 71.1573416 75.90625 73.4765625 C69.99086889 74.54196716 63.99682861 74.76812263 58 75 C57.07243796 77.25318897 57.07243796 77.25318897 57 80 C58.92433374 82.51048644 58.92433374 82.51048644 61.75 84.75 C62.50446411 85.40005005 62.50446411 85.40005005 63.27416992 86.06323242 C67.45620001 89.64009739 71.76659947 93.06651741 76.05078125 96.51953125 C80.10379426 99.92835676 83.93468007 103.5539633 87.78808594 107.18481445 C92.23160698 111.34831769 96.81513951 115.2270438 101.59765625 119 C104.2288316 121.19050696 106.61236309 123.54852253 109 126 C107.46583702 129.98882376 104.5752926 133.64783382 101 136 C97.16163198 135.83516211 95.12343373 133.54876084 92.4375 131 C88.94528621 127.75795942 85.40896267 124.66358199 81.6875 121.6875 C76.87706455 117.7997997 72.3562718 113.67775482 67.84765625 109.45092773 C64.40021826 106.23793605 60.86590108 103.20086117 57.1875 100.25 C42.80085819 88.63972766 42.80085819 88.63972766 41.62890625 80.38671875 C41.46443962 73.70163416 42.3156071 68.97793189 47 64 C52.67859487 60.40741957 57.51545148 59.94000756 64.125 59.75 C70.92401526 59.40249661 76.47023832 58.11978261 82 54 C87.82027596 47.04406044 87.58778454 39.75264612 87 31 C85.85233914 25.84004448 83.01779558 22.36373584 79 19 C60.79670262 8.38140986 28.3042047 14.26489268 14 14 C14 53.6 14 93.2 14 134 C9.38 134 4.76 134 0 134 C0 89.78 0 45.56 0 0 Z " fill="#36302F" transform="translate(502,157)"/>
<path d="M0 0 C33.99 0 67.98 0 103 0 C103 4.62 103 9.24 103 14 C73.63 14 44.26 14 14 14 C14 29.18 14 44.36 14 60 C36.77 60 59.54 60 83 60 C83 64.62 83 69.24 83 74 C60.23 74 37.46 74 14 74 C14 89.51 14 105.02 14 121 C43.37 121 72.74 121 103 121 C103 125.29 103 129.58 103 134 C69.01 134 35.02 134 0 134 C0 89.78 0 45.56 0 0 Z " fill="#36302F" transform="translate(765,157)"/>
<path d="M0 0 C33.99 0 67.98 0 103 0 C103 4.62 103 9.24 103 14 C73.63 14 44.26 14 14 14 C14 29.18 14 44.36 14 60 C36.77 60 59.54 60 83 60 C83 64.62 83 69.24 83 74 C60.23 74 37.46 74 14 74 C14 89.51 14 105.02 14 121 C43.37 121 72.74 121 103 121 C103 125.29 103 129.58 103 134 C69.01 134 35.02 134 0 134 C0 89.78 0 45.56 0 0 Z " fill="#36302F" transform="translate(637,157)"/>
<path d="M0 0 C33.66 0 67.32 0 102 0 C102 4.62 102 9.24 102 14 C72.96 14 43.92 14 14 14 C14 29.18 14 44.36 14 60 C36.77 60 59.54 60 83 60 C83 64.62 83 69.24 83 74 C60.23 74 37.46 74 14 74 C14 89.51 14 105.02 14 121 C43.04 121 72.08 121 102 121 C102 125.29 102 129.58 102 134 C68.34 134 34.68 134 0 134 C0 89.78 0 45.56 0 0 Z " fill="#352F2F" transform="translate(1329,157)"/>
<path d="M0 0 C4.62 0 9.24 0 14 0 C14.01981934 2.1025415 14.03963867 4.20508301 14.06005859 6.37133789 C14.12744735 13.37623237 14.20507448 20.38098773 14.28752708 27.38572025 C14.33713358 31.62601111 14.38346159 35.86628125 14.421875 40.10668945 C14.45918463 44.21115737 14.505657 48.31543495 14.55806351 52.41973686 C14.57636832 53.97310429 14.59156085 55.52651212 14.60334396 57.0799427 C14.75144503 75.95801332 15.6132382 96.5819843 29.0703125 111.2578125 C37.64756181 119.35688763 47.59517409 122.81981536 59.3125 123.3125 C70.44413467 122.97815762 80.70373415 119.72947871 88.99609375 112.18359375 C102.18290393 98.14602162 103.60037551 79.20417899 103.609375 60.9375 C103.6243997 59.16673301 103.64113561 57.3959798 103.65948486 55.62524414 C103.70269008 51.02229069 103.72305194 46.41952603 103.73822021 41.81640625 C103.75796258 37.09624274 103.79991168 32.37627824 103.83984375 27.65625 C103.9146368 18.43756211 103.96523409 9.21891983 104 0 C108.62 0 113.24 0 118 0 C118.09339966 10.25013635 118.16411525 20.50016858 118.20724869 30.75064659 C118.22796883 35.51230462 118.25599508 40.27366782 118.30175781 45.03515625 C118.34577972 49.64528857 118.36925356 54.2551405 118.37950897 58.86546707 C118.38680077 60.60901926 118.4010336 62.35255917 118.42292023 64.09598923 C118.69280164 86.52182852 114.4211735 106.70726326 98.9375 123.6875 C87.18637751 135.03618679 71.77790954 138.0539284 56 138 C39.83545714 137.01702104 27.4089609 130.83361747 16.3125 119.3125 C-3.33274822 96.62121155 -0.29695998 63.71402758 -0.1373291 35.70959473 C-0.11656724 31.67295453 -0.10767171 27.63628801 -0.09765625 23.59960938 C-0.07645037 15.73299417 -0.04138773 7.86653492 0 0 Z " fill="#36302F" transform="translate(1176,157)"/>
<path d="M0 0 C33.99 0 67.98 0 103 0 C103 4.62 103 9.24 103 14 C73.63 14 44.26 14 14 14 C14 29.18 14 44.36 14 60 C36.77 60 59.54 60 83 60 C83 64.62 83 69.24 83 74 C60.23 74 37.46 74 14 74 C14 93.8 14 113.6 14 134 C9.38 134 4.76 134 0 134 C0 89.78 0 45.56 0 0 Z " fill="#36302F" transform="translate(1053,157)"/>
<path d="M0 0 C4.62 0 9.24 0 14 0 C14 39.93 14 79.86 14 121 C43.37 121 72.74 121 103 121 C103 125.29 103 129.58 103 134 C69.01 134 35.02 134 0 134 C0 89.78 0 45.56 0 0 Z " fill="#36302F" transform="translate(1457,157)"/>
<path d="M0 0 C5.78738806 3.28977132 10.31953493 7.64435415 12.8515625 13.85546875 C14.62111555 20.51196503 14.9797567 28.15444525 12 34.5 C8.2541277 40.75626391 2.64137531 45.68204156 -4.3125 48 C-12.27396994 48.67264497 -19.58012805 48.69425153 -26.3125 44 C-31.65706939 39.18779983 -35.72310412 33.77410659 -36.625 26.46875 C-36.96953416 18.80286495 -35.64792123 11.84188433 -30.51171875 5.92578125 C-21.82694316 -2.11817595 -11.11193618 -5.01392242 0 0 Z " fill="#9EC326" transform="translate(254.3125,2)"/>
<path d="M0 0 C1.06053841 0.78389099 1.06053841 0.78389099 2.14250183 1.58361816 C3.87986203 2.87093133 5.56777795 4.20414408 7.25 5.5625 C7.83990723 6.03284668 8.42981445 6.50319336 9.03759766 6.98779297 C13.1004697 10.24011137 17.13999845 13.50761764 21 17 C21 17.33 21 17.66 21 18 C13.55520324 18.50546586 6.11062279 18.88939215 -1.3449707 19.19628906 C-3.87044536 19.31374554 -6.39486981 19.45719314 -8.91723633 19.62890625 C-27.31013041 20.8568046 -38.40729473 18.59217445 -52.74238586 6.77674866 C-56.38855363 3.9072044 -60.33157438 1.55850675 -64.3125 -0.8125 C-66.56653058 -2.17728113 -68.78932196 -3.56477904 -71 -5 C-71 -5.33 -71 -5.66 -71 -6 C-63.3680816 -6.2945942 -55.73568589 -6.54895876 -48.1008482 -6.75383663 C-44.55444558 -6.85022856 -41.00952882 -6.95976906 -37.46459961 -7.10083008 C-33.37670382 -7.26289106 -29.28911325 -7.36509557 -25.19921875 -7.46484375 C-23.94356613 -7.52284653 -22.68791351 -7.5808493 -21.39421082 -7.64060974 C-12.33974719 -7.79560991 -7.0773144 -5.55802516 0 0 Z " fill="#10A68D" transform="translate(173,234)"/>
<path d="M0 0 C5.51655885 3.95401023 9.93077034 8.81846857 11.26171875 15.62109375 C11.26171875 17.60109375 11.26171875 19.58109375 11.26171875 21.62109375 C-5.23828125 21.62109375 -21.73828125 21.62109375 -38.73828125 21.62109375 C-37.73060436 12.55200171 -36.52358617 7.79036895 -29.86328125 1.80859375 C-20.44423695 -4.78473726 -10.22913311 -5.814628 0 0 Z " fill="#0096BE" transform="translate(256.73828125,3.37890625)"/>
<path d="M0 0 C7.33686863 -0.25684414 14.67274272 -0.45128733 22.0132246 -0.56993389 C25.4234553 -0.62693474 28.83057434 -0.70397726 32.23901367 -0.82983398 C58.47818415 -1.77430203 58.47818415 -1.77430203 66.36328125 5.48046875 C71 10.17855943 71 10.17855943 71 12 C63.46257592 12.42622477 55.92491229 12.75927829 48.38037109 13.03149414 C45.82118151 13.13438342 43.2627184 13.25763545 40.70556641 13.40258789 C25.78758077 14.23330808 14.2895934 14.65669462 2.49804688 4.5949707 C0 2 0 2 0 0 Z " fill="#26A886" transform="translate(123,240)"/>
<path d="M0 0 C2.07679237 1.1130816 4.10927481 2.31061064 6.10546875 3.5625 C6.95338737 4.08952515 6.95338737 4.08952515 7.81843567 4.62719727 C9.61264625 5.74440957 11.40014742 6.87185562 13.1875 8 C14.98696261 9.12577573 16.78772093 10.24945397 18.58869934 11.37280273 C20.21643908 12.38969011 21.84108685 13.41152182 23.46557617 14.43359375 C25.87287082 15.97385988 25.87287082 15.97385988 28 17 C27.34 18.32 26.68 19.64 26 21 C25.505 20.01 25.505 20.01 25 19 C7.51 19 -9.98 19 -28 19 C-21.82677419 12.82677419 -15.46680502 6.88318533 -8.6875 1.375 C-7.79611328 0.64410156 -7.79611328 0.64410156 -6.88671875 -0.1015625 C-4.19962984 -1.38112865 -2.852575 -0.80386168 0 0 Z " fill="#27A886" transform="translate(74,233)"/>
<path d="M0 0 C16.5 0 33 0 50 0 C50 7 50 7 49 10 C33.49 10 17.98 10 2 10 C0 6 0 6 0 0 Z " fill="#49AE79" transform="translate(218,25)"/>
<path d="M0 0 C6.81761894 -0.0252689 13.63522589 -0.04283244 20.45288086 -0.05493164 C22.77417451 -0.05997333 25.09546497 -0.06680651 27.41674805 -0.07543945 C30.74528795 -0.08751225 34.07378602 -0.09322979 37.40234375 -0.09765625 C38.44712387 -0.10281754 39.49190399 -0.10797882 40.56834412 -0.11329651 C41.52926468 -0.11337204 42.49018524 -0.11344757 43.48022461 -0.11352539 C44.33071884 -0.115746 45.18121307 -0.11796661 46.05747986 -0.12025452 C48 0 48 0 49 1 C49 2.98 49 4.96 49 7 C32.5 7 16 7 -1 7 C-0.67 4.69 -0.34 2.38 0 0 Z " fill="#05A397" transform="translate(219,18)"/>
<path d="M0 0 C3.95126948 2.86363781 6.31066235 5.84317092 7.2421875 10.625 C7.99079335 17.1538248 7.04538259 22.20237991 3.2421875 27.625 C-1.90445286 32.52058474 -6.17891706 32.9212039 -13.03125 32.83984375 C-18.00117379 32.44823084 -20.74083549 30.7244346 -24.0703125 27.125 C-27.54005689 21.98463794 -27.33153539 16.62450225 -26.7578125 10.625 C-25.47062374 5.9414939 -23.5116614 3.26657353 -19.8203125 0.125 C-14.01263279 -2.70955084 -5.74432112 -2.86402413 0 0 Z M-18.7578125 3.625 C-22.47425137 7.43434984 -23.91232364 10.12311252 -24.0078125 15.375 C-23.94312569 19.85779582 -23.47327817 22.91386359 -20.7578125 26.625 C-16.09040433 29.95886298 -11.32392508 30.5327352 -5.7578125 29.625 C-0.64018432 26.97141502 2.41924692 24.09382174 4.2421875 18.625 C4.66174836 13.17070885 3.91583442 9.41912552 1.2421875 4.625 C-5.12817659 -0.54016007 -11.76451642 0.12835196 -18.7578125 3.625 Z " fill="#322D2C" transform="translate(1552.7578125,157.375)"/>
<path d="M0 0 C15.84 0 31.68 0 48 0 C48 1.32 48 2.64 48 4 C32.49 4 16.98 4 1 4 C0.67 2.68 0.34 1.36 0 0 Z " fill="#6EB55D" transform="translate(219,31)"/>
<path d="M0 0 C15.18 0 30.36 0 46 0 C45.34 1.65 44.68 3.3 44 5 C30.14 5 16.28 5 2 5 C1.34 3.35 0.68 1.7 0 0 Z " fill="#81BB48" transform="translate(220,35)"/>
<path d="M0 0 C4.02203957 0.06414736 6.74312728 0.34012317 9.75 3.25 C10.1875 6.3125 10.1875 6.3125 9.75 9.25 C9.09 9.91 8.43 10.57 7.75 11.25 C6.43 11.25 5.11 11.25 3.75 11.25 C3.75 11.91 3.75 12.57 3.75 13.25 C4.6471875 13.683125 4.6471875 13.683125 5.5625 14.125 C7.75 15.25 7.75 15.25 10.75 17.25 C10.42 18.24 10.09 19.23 9.75 20.25 C6.31404834 18.72291037 3.63087546 16.65072955 0.75 14.25 C1 11.875 1 11.875 1.75 9.25 C3.75 8.125 3.75 8.125 5.75 7.25 C6.08 6.26 6.41 5.27 6.75 4.25 C3.78 3.92 0.81 3.59 -2.25 3.25 C-2.25 8.53 -2.25 13.81 -2.25 19.25 C-3.24 19.25 -4.23 19.25 -5.25 19.25 C-5.27683987 16.27077407 -5.29676037 13.29178705 -5.3125 10.3125 C-5.32087891 9.46236328 -5.32925781 8.61222656 -5.33789062 7.73632812 C-5.34111328 6.92744141 -5.34433594 6.11855469 -5.34765625 5.28515625 C-5.35289307 4.5362915 -5.35812988 3.78742676 -5.36352539 3.01586914 C-5.13931289 -0.47172014 -3.00478238 0.05969766 0 0 Z " fill="#332D2C" transform="translate(1541.25,162.75)"/>
<path d="M0 0 C2.67578125 1.375 2.67578125 1.375 5.3125 3 C6.19550781 3.53625 7.07851562 4.0725 7.98828125 4.625 C8.65214844 5.07875 9.31601563 5.5325 10 6 C10 6.33 10 6.66 10 7 C2.08 7 -5.84 7 -14 7 C-5.46899662 -1.53100338 -5.46899662 -1.53100338 0 0 Z " fill="#12A387" transform="translate(74,233)"/>
<path d="M0 0 C14.52 0 29.04 0 44 0 C43.67 0.99 43.34 1.98 43 3 C29.14 3 15.28 3 1 3 C0.67 2.01 0.34 1.02 0 0 Z " fill="#8BBD38" transform="translate(221,37)"/>
</svg>
